<mxfile host="app.diagrams.net" modified="2023-10-22T13:18:16.056Z" agent="Mozilla/5.0 (Windows NT 10.0; Win64; x64) AppleWebKit/537.36 (KHTML, like Gecko) Chrome/116.0.0.0 Safari/537.36" etag="cfObyZbvncFzdcd2_E2U" version="22.0.6" type="github">
  <diagram name="Page-1" id="03018318-947c-dd8e-b7a3-06fadd420f32">
    <mxGraphModel dx="965" dy="503" grid="1" gridSize="10" guides="1" tooltips="1" connect="1" arrows="1" fold="1" page="1" pageScale="1" pageWidth="1100" pageHeight="850" background="none" math="0" shadow="0">
      <root>
        <mxCell id="0" />
        <mxCell id="1" parent="0" />
        <mxCell id="mACh9X3qU8Q6sLjc18Z--1" value="Window Title" style="strokeWidth=1;shadow=0;dashed=0;align=center;html=1;shape=mxgraph.mockup.containers.window;align=left;verticalAlign=top;spacingLeft=8;strokeColor2=#008cff;strokeColor3=#c4c4c4;fontColor=#666666;mainText=;fontSize=17;labelBackgroundColor=none;whiteSpace=wrap;" vertex="1" parent="1">
          <mxGeometry x="50" y="40" width="620" height="650" as="geometry" />
        </mxCell>
        <mxCell id="mACh9X3qU8Q6sLjc18Z--2" value="" style="rounded=0;whiteSpace=wrap;html=1;fillColor=#ffe6cc;strokeColor=#d79b00;" vertex="1" parent="1">
          <mxGeometry x="60" y="80" width="600" height="600" as="geometry" />
        </mxCell>
        <mxCell id="mACh9X3qU8Q6sLjc18Z--4" value="" style="rounded=0;whiteSpace=wrap;html=1;fillColor=#dae8fc;strokeColor=#6c8ebf;" vertex="1" parent="1">
          <mxGeometry x="70" y="90" width="580" height="170" as="geometry" />
        </mxCell>
        <mxCell id="mACh9X3qU8Q6sLjc18Z--6" value="" style="rounded=0;whiteSpace=wrap;html=1;fillColor=#d5e8d4;strokeColor=#82b366;" vertex="1" parent="1">
          <mxGeometry x="70" y="270" width="580" height="400" as="geometry" />
        </mxCell>
        <mxCell id="mACh9X3qU8Q6sLjc18Z--5" value="" style="verticalLabelPosition=bottom;shadow=0;dashed=0;align=center;html=1;verticalAlign=top;strokeWidth=1;shape=mxgraph.mockup.navigation.scrollBar;strokeColor=#999999;barPos=20;fillColor2=#99ddff;strokeColor2=none;direction=north;" vertex="1" parent="1">
          <mxGeometry x="630" y="270" width="20" height="400" as="geometry" />
        </mxCell>
        <mxCell id="mACh9X3qU8Q6sLjc18Z--7" value="ContentView" style="text;strokeColor=none;align=left;fillColor=none;html=1;verticalAlign=middle;whiteSpace=wrap;rounded=0;fontSize=16;fontColor=#37210b;fontStyle=1" vertex="1" parent="1">
          <mxGeometry x="790" y="90" width="60" height="30" as="geometry" />
        </mxCell>
        <mxCell id="mACh9X3qU8Q6sLjc18Z--9" value="ScrollView" style="text;strokeColor=none;align=left;fillColor=none;html=1;verticalAlign=middle;whiteSpace=wrap;rounded=0;fontSize=16;fontColor=#1f2f1e;fontStyle=1" vertex="1" parent="1">
          <mxGeometry x="790" y="280" width="180" height="30" as="geometry" />
        </mxCell>
        <mxCell id="mACh9X3qU8Q6sLjc18Z--10" value="HorizontalStackLayout" style="text;strokeColor=none;align=left;fillColor=none;html=1;verticalAlign=middle;whiteSpace=wrap;rounded=0;fontSize=16;fontColor=#1c2839;fontStyle=1" vertex="1" parent="1">
          <mxGeometry x="790" y="120" width="180" height="30" as="geometry" />
        </mxCell>
        <mxCell id="mACh9X3qU8Q6sLjc18Z--11" style="edgeStyle=orthogonalEdgeStyle;rounded=0;orthogonalLoop=1;jettySize=auto;html=1;entryX=1.002;entryY=0.043;entryDx=0;entryDy=0;entryPerimeter=0;" edge="1" parent="1" source="mACh9X3qU8Q6sLjc18Z--7" target="mACh9X3qU8Q6sLjc18Z--2">
          <mxGeometry relative="1" as="geometry" />
        </mxCell>
        <mxCell id="mACh9X3qU8Q6sLjc18Z--12" style="edgeStyle=orthogonalEdgeStyle;rounded=0;orthogonalLoop=1;jettySize=auto;html=1;" edge="1" parent="1" source="mACh9X3qU8Q6sLjc18Z--10">
          <mxGeometry relative="1" as="geometry">
            <mxPoint x="650" y="135" as="targetPoint" />
          </mxGeometry>
        </mxCell>
        <mxCell id="mACh9X3qU8Q6sLjc18Z--13" style="edgeStyle=orthogonalEdgeStyle;rounded=0;orthogonalLoop=1;jettySize=auto;html=1;" edge="1" parent="1" source="mACh9X3qU8Q6sLjc18Z--9">
          <mxGeometry relative="1" as="geometry">
            <mxPoint x="650" y="295" as="targetPoint" />
          </mxGeometry>
        </mxCell>
        <mxCell id="mACh9X3qU8Q6sLjc18Z--14" value="" style="rounded=0;whiteSpace=wrap;html=1;fillColor=#e1d5e7;strokeColor=#9673a6;fontColor=#3a2f3f;" vertex="1" parent="1">
          <mxGeometry x="80" y="280" width="540" height="380" as="geometry" />
        </mxCell>
        <mxCell id="mACh9X3qU8Q6sLjc18Z--16" style="edgeStyle=orthogonalEdgeStyle;rounded=0;orthogonalLoop=1;jettySize=auto;html=1;entryX=1;entryY=0.25;entryDx=0;entryDy=0;" edge="1" parent="1" source="mACh9X3qU8Q6sLjc18Z--15" target="mACh9X3qU8Q6sLjc18Z--14">
          <mxGeometry relative="1" as="geometry" />
        </mxCell>
        <mxCell id="mACh9X3qU8Q6sLjc18Z--15" value="VerticalStackLayout" style="text;strokeColor=none;align=left;fillColor=none;html=1;verticalAlign=middle;whiteSpace=wrap;rounded=0;fontSize=16;fontColor=#3a2f3f;fontStyle=1" vertex="1" parent="1">
          <mxGeometry x="790" y="360" width="180" height="30" as="geometry" />
        </mxCell>
        <mxCell id="mACh9X3qU8Q6sLjc18Z--17" value="" style="rounded=0;whiteSpace=wrap;html=1;fillColor=#e1d5e7;strokeColor=#9673a6;" vertex="1" parent="1">
          <mxGeometry x="500" y="100" width="140" height="150" as="geometry" />
        </mxCell>
        <mxCell id="mACh9X3qU8Q6sLjc18Z--19" value="" style="rounded=0;whiteSpace=wrap;html=1;fillColor=#f8cecc;strokeColor=#b85450;" vertex="1" parent="1">
          <mxGeometry x="80" y="100" width="410" height="150" as="geometry" />
        </mxCell>
        <mxCell id="mACh9X3qU8Q6sLjc18Z--20" value="Button" style="text;strokeColor=none;align=left;fillColor=none;html=1;verticalAlign=middle;whiteSpace=wrap;rounded=0;fontSize=16;fontColor=#3a2f3f;fontStyle=1" vertex="1" parent="1">
          <mxGeometry x="790" y="150" width="180" height="30" as="geometry" />
        </mxCell>
        <mxCell id="mACh9X3qU8Q6sLjc18Z--21" style="edgeStyle=orthogonalEdgeStyle;rounded=0;orthogonalLoop=1;jettySize=auto;html=1;" edge="1" parent="1" source="mACh9X3qU8Q6sLjc18Z--20">
          <mxGeometry relative="1" as="geometry">
            <mxPoint x="640" y="165" as="targetPoint" />
          </mxGeometry>
        </mxCell>
        <mxCell id="mACh9X3qU8Q6sLjc18Z--22" value="HorizontalStackLayout" style="text;strokeColor=none;align=left;fillColor=none;html=1;verticalAlign=middle;whiteSpace=wrap;rounded=0;fontSize=16;fontColor=#1c2839;fontStyle=1" vertex="1" parent="1">
          <mxGeometry x="790" y="180" width="180" height="30" as="geometry" />
        </mxCell>
        <mxCell id="mACh9X3qU8Q6sLjc18Z--24" value="" style="rounded=0;whiteSpace=wrap;html=1;fillColor=#d5e8d4;strokeColor=#82b366;" vertex="1" parent="1">
          <mxGeometry x="90" y="110" width="130" height="130" as="geometry" />
        </mxCell>
        <mxCell id="mACh9X3qU8Q6sLjc18Z--25" value="" style="rounded=0;whiteSpace=wrap;html=1;fillColor=#fff2cc;strokeColor=#d6b656;" vertex="1" parent="1">
          <mxGeometry x="225" y="110" width="255" height="130" as="geometry" />
        </mxCell>
        <mxCell id="mACh9X3qU8Q6sLjc18Z--26" value="TextBox" style="text;strokeColor=none;align=left;fillColor=none;html=1;verticalAlign=middle;whiteSpace=wrap;rounded=0;fontSize=16;fontColor=#1f2f1e;fontStyle=1" vertex="1" parent="1">
          <mxGeometry x="790" y="210" width="180" height="30" as="geometry" />
        </mxCell>
        <mxCell id="mACh9X3qU8Q6sLjc18Z--27" style="edgeStyle=orthogonalEdgeStyle;rounded=0;orthogonalLoop=1;jettySize=auto;html=1;entryX=-0.026;entryY=0.88;entryDx=0;entryDy=0;entryPerimeter=0;" edge="1" parent="1" source="mACh9X3qU8Q6sLjc18Z--26" target="mACh9X3qU8Q6sLjc18Z--25">
          <mxGeometry relative="1" as="geometry" />
        </mxCell>
        <mxCell id="mACh9X3qU8Q6sLjc18Z--28" value="TextBox" style="text;strokeColor=none;align=left;fillColor=none;html=1;verticalAlign=middle;whiteSpace=wrap;rounded=0;fontSize=16;fontColor=#281d00;fontStyle=1" vertex="1" parent="1">
          <mxGeometry x="790" y="240" width="180" height="30" as="geometry" />
        </mxCell>
        <mxCell id="mACh9X3qU8Q6sLjc18Z--29" style="edgeStyle=orthogonalEdgeStyle;rounded=0;orthogonalLoop=1;jettySize=auto;html=1;entryX=1;entryY=0.982;entryDx=0;entryDy=0;entryPerimeter=0;" edge="1" parent="1" source="mACh9X3qU8Q6sLjc18Z--28" target="mACh9X3qU8Q6sLjc18Z--25">
          <mxGeometry relative="1" as="geometry" />
        </mxCell>
        <mxCell id="mACh9X3qU8Q6sLjc18Z--30" value="01:23" style="text;strokeColor=none;align=center;fillColor=none;html=1;verticalAlign=middle;whiteSpace=wrap;rounded=0;fontFamily=Courier New;fontSize=37;fontStyle=1;fontColor=#af4141;" vertex="1" parent="1">
          <mxGeometry x="90" y="150" width="130" height="60" as="geometry" />
        </mxCell>
        <mxCell id="mACh9X3qU8Q6sLjc18Z--31" value="Work Item" style="text;strokeColor=none;align=left;fillColor=none;html=1;verticalAlign=middle;whiteSpace=wrap;rounded=0;fontSize=23;" vertex="1" parent="1">
          <mxGeometry x="230" y="160" width="240" height="40" as="geometry" />
        </mxCell>
        <mxCell id="mACh9X3qU8Q6sLjc18Z--32" value="" style="shape=mxgraph.arrows2.wedgeArrow;html=1;bendable=0;startWidth=50;fillColor=#dae8fc;defaultFillColor=invert;defaultGradientColor=invert;rounded=0;fontColor=#FFADFF;strokeColor=#6c8ebf;" edge="1" parent="1">
          <mxGeometry width="100" height="100" relative="1" as="geometry">
            <mxPoint x="510" y="176.5" as="sourcePoint" />
            <mxPoint x="630" y="175" as="targetPoint" />
          </mxGeometry>
        </mxCell>
        <mxCell id="mACh9X3qU8Q6sLjc18Z--23" style="edgeStyle=orthogonalEdgeStyle;rounded=0;orthogonalLoop=1;jettySize=auto;html=1;entryX=0.998;entryY=0.637;entryDx=0;entryDy=0;entryPerimeter=0;" edge="1" parent="1" source="mACh9X3qU8Q6sLjc18Z--22" target="mACh9X3qU8Q6sLjc18Z--19">
          <mxGeometry relative="1" as="geometry" />
        </mxCell>
      </root>
    </mxGraphModel>
  </diagram>
</mxfile>
